REM DIRINDEX 1\2\5,1\2\6,1\2\7,1\2\8,1\3\9,1\3\10,1\3\11,1\4\12,1\4\13,1\4\14,1\4\15,1\4\16
REM DIRNAME folder01,folder02,folder03,folder04,folder05,folder06,folder07,folder08,folder09,folder10,folder11,folder12,folder13,folder14,folder15,folder16
TITLE ""
FILE "1200_sec02_0561_0571.mp3" MP3
  TRACK 01 AUDIO
    TITLE "0:"
    INDEX 01 00:00:00
  TRACK 02 AUDIO
    TITLE "16:cjc034_05890"
    INDEX 01 00:03:17
  TRACK 03 AUDIO
    TITLE "0:"
    INDEX 01 00:04:38
  TRACK 04 AUDIO
    TITLE "16:cjc034_05891"
    INDEX 01 00:05:10
  TRACK 05 AUDIO
    TITLE "0:"
    INDEX 01 00:07:33
  TRACK 06 AUDIO
    TITLE "12:cjc034_05892"
    INDEX 01 00:08:34
  TRACK 07 AUDIO
    TITLE "0:"
    INDEX 01 00:10:23
  TRACK 08 AUDIO
    TITLE "13:cjc034_05893"
    INDEX 01 00:10:55
  TRACK 09 AUDIO
    TITLE "0:"
    INDEX 01 00:13:43
  TRACK 10 AUDIO
    TITLE "14:cjc034_05894"
    INDEX 01 00:14:04
  TRACK 11 AUDIO
    TITLE "0:"
    INDEX 01 00:15:68
  TRACK 12 AUDIO
    TITLE "15:cjc034_05895"
    INDEX 01 00:16:24
  TRACK 13 AUDIO
    TITLE "0:"
    INDEX 01 00:20:16
  TRACK 14 AUDIO
    TITLE "12:cjc034_05896"
    INDEX 01 00:21:49
  TRACK 15 AUDIO
    TITLE "0:"
    INDEX 01 00:25:07
  TRACK 16 AUDIO
    TITLE "13:cjc034_05897"
    INDEX 01 00:25:41
  TRACK 17 AUDIO
    TITLE "0:"
    INDEX 01 00:27:28
  TRACK 18 AUDIO
    TITLE "14:cjc034_05898"
    INDEX 01 00:27:59
  TRACK 19 AUDIO
    TITLE "0:"
    INDEX 01 00:31:20
  TRACK 20 AUDIO
    TITLE "15:cjc034_05899"
    INDEX 01 00:31:53
  TRACK 21 AUDIO
    TITLE "0:"
    INDEX 01 00:35:31
  TRACK 22 AUDIO
    TITLE "12:cjc034_05900"
    INDEX 01 00:36:64
  TRACK 23 AUDIO
    TITLE "0:"
    INDEX 01 00:38:45
  TRACK 24 AUDIO
    TITLE "13:cjc034_05901"
    INDEX 01 00:39:05
  TRACK 25 AUDIO
    TITLE "0:"
    INDEX 01 00:42:41
  TRACK 26 AUDIO
    TITLE "14:cjc034_05902"
    INDEX 01 00:42:72
  TRACK 27 AUDIO
    TITLE "0:"
    INDEX 01 00:44:54
  TRACK 28 AUDIO
    TITLE "15:cjc034_05903"
    INDEX 01 00:45:16
  TRACK 29 AUDIO
    TITLE "0:"
    INDEX 01 00:49:41
  TRACK 30 AUDIO
    TITLE "12:cjc034_05904"
    INDEX 01 00:50:72
  TRACK 31 AUDIO
    TITLE "0:"
    INDEX 01 00:52:47
  TRACK 32 AUDIO
    TITLE "13:cjc034_05905"
    INDEX 01 00:53:04
  TRACK 33 AUDIO
    TITLE "0:"
    INDEX 01 00:54:72
  TRACK 34 AUDIO
    TITLE "14:cjc034_05906"
    INDEX 01 00:55:26
  TRACK 35 AUDIO
    TITLE "0:"
    INDEX 01 00:57:01
  TRACK 36 AUDIO
    TITLE "15:cjc034_05907"
    INDEX 01 00:57:31
  TRACK 37 AUDIO
    TITLE "0:"
    INDEX 01 01:01:46
  TRACK 38 AUDIO
    TITLE "12:cjc034_05908"
    INDEX 01 01:03:04
  TRACK 39 AUDIO
    TITLE "0:"
    INDEX 01 01:04:50
  TRACK 40 AUDIO
    TITLE "13:cjc034_05909"
    INDEX 01 01:05:13
  TRACK 41 AUDIO
    TITLE "0:"
    INDEX 01 01:06:55
  TRACK 42 AUDIO
    TITLE "14:cjc034_05910"
    INDEX 01 01:07:14
  TRACK 43 AUDIO
    TITLE "0:"
    INDEX 01 01:08:60
  TRACK 44 AUDIO
    TITLE "15:cjc034_05911"
    INDEX 01 01:09:22
  TRACK 45 AUDIO
    TITLE "0:"
    INDEX 01 01:14:14
  TRACK 46 AUDIO
    TITLE "12:cjc034_05912"
    INDEX 01 01:15:54
  TRACK 47 AUDIO
    TITLE "0:"
    INDEX 01 01:17:20
  TRACK 48 AUDIO
    TITLE "13:cjc034_05913"
    INDEX 01 01:17:51
  TRACK 49 AUDIO
    TITLE "0:"
    INDEX 01 01:19:28
  TRACK 50 AUDIO
    TITLE "14:cjc034_05914"
    INDEX 01 01:19:62
  TRACK 51 AUDIO
    TITLE "0:"
    INDEX 01 01:21:27
  TRACK 52 AUDIO
    TITLE "15:cjc034_05915"
    INDEX 01 01:21:59
  TRACK 53 AUDIO
    TITLE "0:"
    INDEX 01 01:24:59
  TRACK 54 AUDIO
    TITLE "12:cjc034_05916"
    INDEX 01 01:26:15
  TRACK 55 AUDIO
    TITLE "0:"
    INDEX 01 01:27:65
  TRACK 56 AUDIO
    TITLE "13:cjc034_05917"
    INDEX 01 01:28:22
  TRACK 57 AUDIO
    TITLE "0:"
    INDEX 01 01:31:65
  TRACK 58 AUDIO
    TITLE "14:cjc034_05918"
    INDEX 01 01:32:23
  TRACK 59 AUDIO
    TITLE "0:"
    INDEX 01 01:33:74
  TRACK 60 AUDIO
    TITLE "15:cjc034_05919"
    INDEX 01 01:34:30
  TRACK 61 AUDIO
    TITLE "0:"
    INDEX 01 01:37:22
  TRACK 62 AUDIO
    TITLE "12:cjc034_05920"
    INDEX 01 01:38:55
  TRACK 63 AUDIO
    TITLE "0:"
    INDEX 01 01:40:44
  TRACK 64 AUDIO
    TITLE "13:cjc034_05921"
    INDEX 01 01:41:01
  TRACK 65 AUDIO
    TITLE "0:"
    INDEX 01 01:43:19
  TRACK 66 AUDIO
    TITLE "14:cjc034_05922"
    INDEX 01 01:43:51
  TRACK 67 AUDIO
    TITLE "0:"
    INDEX 01 01:45:38
  TRACK 68 AUDIO
    TITLE "15:cjc034_05923"
    INDEX 01 01:45:69
  TRACK 69 AUDIO
    TITLE "0:"
    INDEX 01 01:49:02
  TRACK 70 AUDIO
    TITLE "12:cjc034_05924"
    INDEX 01 01:50:35
  TRACK 71 AUDIO
    TITLE "0:"
    INDEX 01 01:52:42
  TRACK 72 AUDIO
    TITLE "13:cjc034_05925"
    INDEX 01 01:53:08
  TRACK 73 AUDIO
    TITLE "0:"
    INDEX 01 01:56:59
  TRACK 74 AUDIO
    TITLE "14:cjc034_05926"
    INDEX 01 01:57:19
  TRACK 75 AUDIO
    TITLE "0:"
    INDEX 01 01:59:28
  TRACK 76 AUDIO
    TITLE "15:cjc034_05927"
    INDEX 01 01:59:67
  TRACK 77 AUDIO
    TITLE "0:"
    INDEX 01 02:04:23
  TRACK 78 AUDIO
    TITLE "12:cjc034_05928"
    INDEX 01 02:05:54
  TRACK 79 AUDIO
    TITLE "0:"
    INDEX 01 02:08:74
  TRACK 80 AUDIO
    TITLE "13:cjc034_05929"
    INDEX 01 02:09:30
  TRACK 81 AUDIO
    TITLE "0:"
    INDEX 01 02:10:71
  TRACK 82 AUDIO
    TITLE "14:cjc034_05930"
    INDEX 01 02:11:27
  TRACK 83 AUDIO
    TITLE "0:"
    INDEX 01 02:14:49
  TRACK 84 AUDIO
    TITLE "15:cjc034_05931"
    INDEX 01 02:15:03
  TRACK 85 AUDIO
    TITLE "0:"
    INDEX 01 02:18:63
  TRACK 86 AUDIO
    TITLE "12:cjc034_05932"
    INDEX 01 02:20:22
  TRACK 87 AUDIO
    TITLE "0:"
    INDEX 01 02:22:00
  TRACK 88 AUDIO
    TITLE "13:cjc034_05933"
    INDEX 01 02:22:33
  TRACK 89 AUDIO
    TITLE "0:"
    INDEX 01 02:25:51
  TRACK 90 AUDIO
    TITLE "14:cjc034_05934"
    INDEX 01 02:26:07
  TRACK 91 AUDIO
    TITLE "0:"
    INDEX 01 02:27:62
  TRACK 92 AUDIO
    TITLE "15:cjc034_05935"
    INDEX 01 02:28:22
  TRACK 93 AUDIO
    TITLE "0:"
    INDEX 01 02:31:44
